<svg xmlns="http://www.w3.org/2000/svg" viewBox="0 0 78.83 61.15" xmlns:v="https://vecta.io/nano"><g stroke="#fff" stroke-miterlimit="10"><path d="M39.06 12.13h-2.21 2.24v-1.61h-2.23 2.19V8.83h.81v1.71h1.29V9.31v1.23h-1.26v1.59h1.29-1.28v1.19h1.21v2.85H39.9v19.54h-.84z" fill="#fff"/><path d="M64.76 30.55l3-3.16 5.69 5.34-7.54-7.12 10.13 1.25 2 10.19-2.59-2.4.92.87-7.77 8.27 7.85-8.27 1.58 1.51-2-10.19-10.17-1.23 1.89 1.78z" fill="none"/></g><path d="M67.63 42.85L73 37.14l-2.67-2.51-1.7 1.82.57.54-1 1.07-.57-.54-2.66 2.83-1.76-1.66L68 33.6l-6.55-6.16-4.8 5.1" fill="#fff"/><path d="M12.57 40.84l1.88-3.14-1.83 3.14-1.17-1.69 3-1.45-3 1.45 1.62-2.95-1.62 2.95-1.16-1.68 2.78-1.27-2.78 1.27 1.4-2.76-1.4 2.76-1.22-1.69 2.57-1.07-2.57 1.07 1.19-2.56-1.19 2.56L7.9 34.1l2.36-.88-2.36.88 1-2.36-1 2.36-2.55 2.36L7.9 34.1l-1.17-1.67 2.12-.69-2.12.69-1.38 4 2.15-6.26-.77 2.26-2.08 1.91 2.08-1.91-1.13-1.72 1.9-.51-1.9.51-1 3.63 1.44-5.63-.49 2-1.18-1.68 1.72-.31-1.72.31.32-1.81-.32 1.81-2 .37-1.6.28-.53-.59.53.59 1.6-.28-2.18-.32 2.13.31 2.05-.36-1.15-1.67 1.47-.15-1.47.15-.9 2 .9-2-2.5 2.31 2.5-2.31 4.23-3.89-2.49 2.28-.27 1.46.27-1.46 2.07-.72-2.07.72 1.56 1.28-1.83.19 1.83-.19-.43 1.69.43-1.69.51-2 .42-1.56-.61-.66.61.66-.42 1.56-.22-2.22.22 2.22-.51 2 1.62 1.32-2 .37 2.05-.37-.64 1.86.64-1.86 3.72-.66-3.72.66 1.56 1.28-2.2.58 2.2-.58 2.16-1.94-2.16 1.94-.9 2.11.85-2.12 4.26-1.14-4.26 1.14 1.62 1.31 2.64-2.45-2.64 2.45-2.47.81 2.47-.81-1.06 2.29 1.06-2.29 1.59 1.3-2.65 1 2.65-1-1.27 2.48 1.27-2.48 1.59 1.29-2.86 1.19 2.86-1.19-1.48 2.68 1.48-2.68 1.58 1.29-3.06 1.39 3.06-1.39-1.63 2.89 1.68-2.89 1.6 1.3-3.28 1.59zm28.81-28.69a37.24 37.24 0 0 0 9.8 9.58 37.45 37.45 0 0 0 16.16 5.95" stroke="#fff" stroke-miterlimit="10" fill="none" stroke-width=".5"/><path d="M10.8 43.79l.1-.18a35.51 35.51 0 0 1 11.84-12.16 33.27 33.27 0 0 1 10.36-4.24 33.84 33.84 0 0 1 3.49-.57 33.06 33.06 0 0 1 16.53 2.39 34.41 34.41 0 0 1 10.82 7.3 36 36 0 0 1 5.61 7.17l.16.29a2 2 0 0 0-.1.21 35.62 35.62 0 0 1-12.6 12.6 33 33 0 0 1-13.22 4.36 31.39 31.39 0 0 1-5.13.15 32.82 32.82 0 0 1-12.93-3.32 34.86 34.86 0 0 1-10.61-8.05 36.78 36.78 0 0 1-4.17-5.71zM46.92 55.9a28.43 28.43 0 0 0 9.53-4.2 31.42 31.42 0 0 0 8-7.88v-.08a2.39 2.39 0 0 0-.13-.21 30.93 30.93 0 0 0-6.87-6.94 28.87 28.87 0 0 0-10.34-4.89h-.21a14.39 14.39 0 0 1 5.18 5.1 13.8 13.8 0 0 1 0 14 14.23 14.23 0 0 1-5.16 5.1zM16.05 43.78l.16.24A31 31 0 0 0 24 51.67a28.62 28.62 0 0 0 9.45 4.22h.21l-.88-.54-.82-.58-.75-.6a9.47 9.47 0 0 1-.73-.69l-.66-.7-.63-.75c-.21-.27-.37-.53-.55-.8a8.05 8.05 0 0 1-.5-.86l-.44-.86c-.14-.29-.26-.61-.38-.92s-.21-.61-.3-.92a9.63 9.63 0 0 1-.25-1l-.17-1-.1-1c-.03-.34 0-.64 0-1v-1c0-.35.06-.66.1-1s.1-.63.17-.95l.25-1c.09-.35.19-.62.3-.92l.39-.92a8.62 8.62 0 0 1 .43-.86c.15-.29.33-.58.51-.86l.55-.8.63-.77.65-.71.73-.68.75-.61.82-.57c.27-.19.55-.32.84-.53a25.42 25.42 0 0 0-4.39 1.54 29.72 29.72 0 0 0-8.53 5.44 31 31 0 0 0-4.65 5.31zM27.74 8.1l-2.29.23v-3.3h-6.2l-.23 4.14-2.31.25V5.03h-6v3.3l-2.26.23-.3-5.86h2.6v.69l6-.23v-1h-7.8L8.6.63l18.41-.6v2.2h-7.56v.84l8.72-.34zm-.29 7.06l1 4.1h-.62l-1.2.05h-.47l-2.34.09-2.64.08h-2.57a2.29 2.29 0 0 1-1-.22 1.16 1.16 0 0 1-.37-.29 1.69 1.69 0 0 1-.4-.76 2.68 2.68 0 0 1-.06-.59v-1.29h-4.5v.92l-2.24.29-.41-8.25h2.65v.59l14.07-.59-.41 7h-6.93v.6a.78.78 0 0 0 0 .22.43.43 0 0 0 .34.31h.27l2.91-.13h.27a18.11 18.11 0 0 0 1.93-.2 2.94 2.94 0 0 0 .94-.31h.08a1 1 0 0 0 .42-.63c0-.1.05-.21.07-.31a3.7 3.7 0 0 0 .07-.38v-.33zm-2.66-6.13h-4.62l-.36-1.24 5-.34zm0-2h-4.62l-.36-1.21 5-.34zm-8.75 2h-4.59l-.38-1.24 4.94-.34zm0-2h-4.59l-.38-1.21 4.94-.34zm.66 5.31v-.92h-4.42v1.13zm0 2.35v-.84h-4.42v1zm7-.25v-.59h-4.53l-.07.75zm0-2.42v-.6h-4.39l-.05.8zm47.09 3.4l-1.46 5.12a6.81 6.81 0 0 1-2.76-2.13 9.35 9.35 0 0 1-1.47-2.86c0-.12-.07-.23-.1-.34a14.08 14.08 0 0 1-.5-3.75v-1.43H51.21l-.45-1.76 16.53-.91v3.82l.06 1.37a9.18 9.18 0 0 0 .4 1.91 6.15 6.15 0 0 0 .34.84 5.31 5.31 0 0 0 .45.75 3.81 3.81 0 0 0 .37.43l1-1.58zm-6.22 2.24l-1.92 2.47-2.11-1.81-2.17-1.74a30.66 30.66 0 0 1-3.11 2 33.9 33.9 0 0 1-3.25 1.62l-.75-1.35a25.72 25.72 0 0 0 2.7-1.73 32.14 32.14 0 0 0 2.51-2l-4.39-3.11.87-1.1 2.5 1.25 2.62 1.43a42.93 42.93 0 0 0 2.91-3.32l2.47 1.76a20 20 0 0 1-1.42 1.51l-1.55 1.44 2.11 1.31 1.98 1.37zm4.82-13.93H55.74a21.92 21.92 0 0 1-2.29 1.81l-1.61 1-.72.41-.91-1.35a17.21 17.21 0 0 0 2.8-2.57 18.72 18.72 0 0 0 1.44-2q.3-.48.57-1l3.48.69-.44.58-.41.51-.07.08 11.8-.76zm-.89 2.95H55.05l-.45-1.49 13.9-.91z" fill="#fff"/><g stroke="#fff"><path d="M37.82 12.15a37.29 37.29 0 0 1-10.91 10.29 37.3 37.3 0 0 1-15 5.24" stroke-miterlimit="10" fill="none" stroke-width=".5"/><path fill-rule="evenodd" stroke-width=".192" d="m48.779 42.833-1.487.143a1.732 1.732 0 0 1 .126.243 2.072 2.072 0 0 1 .047.124q.072.203.072.427 0 .57-.408.988a1.337 1.337 0 0 1-.97.417 1.653 1.653 0 0 1-.027 0h-.061q-.57-.04-.957-.438-.387-.397-.387-.967a1.372 1.372 0 0 1 .145-.633 1.396 1.396 0 0 1 .272-.365q.418-.407.988-.407a1.421 1.421 0 0 1 .236.019 1.138 1.138 0 0 1 .17.042v-1.405H33.915v1.812l-2.24.204-.407-4.256h2.708v.794l1.303-.06a1.245 1.245 0 0 1-.445-.904 1.598 1.598 0 0 1-.003-.094 1.322 1.322 0 0 1 .107-.536 1.271 1.271 0 0 1 .27-.39 1.257 1.257 0 0 1 .91-.378 1.593 1.593 0 0 1 .017 0 1.322 1.322 0 0 1 .535.107 1.271 1.271 0 0 1 .391.27 1.257 1.257 0 0 1 .377.91 1.593 1.593 0 0 1 0 .017 1.423 1.423 0 0 1-.06.42 1.136 1.136 0 0 1-.286.476l2.708-.143a1.193 1.193 0 0 1-.406-.866 1.545 1.545 0 0 1-.002-.07 1.26 1.26 0 0 1 .116-.545 1.25 1.25 0 0 1 .25-.352 1.217 1.217 0 0 1 .88-.366 1.518 1.518 0 0 1 .017 0 1.26 1.26 0 0 1 .544.116 1.25 1.25 0 0 1 .352.25 1.217 1.217 0 0 1 .366.88 1.518 1.518 0 0 1 0 .016 1.3 1.3 0 0 1-.085.478 1.196 1.196 0 0 1-.22.357l1.975-.102q.326-.692.54-1.293.182-.512.283-.854a7.387 7.387 0 0 0 .032-.113q-2.912.143-5.905.204a296.56 296.56 0 0 1-4.616.057 330.11 330.11 0 0 1-1.594.004l-.306-1.405a210.31 210.31 0 0 0 4.114-.187 184.93 184.93 0 0 0 1.313-.078q2.596-.163 5.151-.407 2.556-.244 5.223-.55l.815 2.159-3.177.162 1.487.611-.458.5a13.48 13.48 0 0 1-.374.39q-.21.21-.453.439a24.683 24.683 0 0 1-.304.28l3.828-.204zm.122 7.534-.896 2.403a80.189 80.189 0 0 1-3.24-.688 72.474 72.474 0 0 1-.446-.106 95.294 95.294 0 0 1-2.451-.625 82.023 82.023 0 0 1-.908-.25q-2.159.712-4.419 1.12a39.879 39.879 0 0 1-4.148.53 36.542 36.542 0 0 1-.27.02l-.408-1.324a34.392 34.392 0 0 0 2.963-.438 31.336 31.336 0 0 0 .407-.081 41.1 41.1 0 0 0 2.53-.607 36.486 36.486 0 0 0 .555-.157q-1.774-.67-3.147-1.34a26.271 26.271 0 0 1-.09-.045q-.449.265-.886.5-.438.233-.866.457l-.631-1.079a43.315 43.315 0 0 0 1.94-1.412 47.707 47.707 0 0 0 .28-.217q1.12-.875 2.076-1.751a1.577 1.577 0 0 1-.617-.525 1.872 1.872 0 0 1-.024-.035 1.302 1.302 0 0 1-.165-.358q-.05-.169-.072-.373a3.147 3.147 0 0 1-.017-.338V43.2q-.172.343-.505.9a35.689 35.689 0 0 1-.218.363 14.164 14.164 0 0 1-.97 1.384 15.848 15.848 0 0 1-.18.224l-1.67-1.405a13.838 13.838 0 0 0 .724-.585q.33-.287.604-.567a8.223 8.223 0 0 0 .076-.08 19.011 19.011 0 0 0 .33-.355q.31-.345.508-.606a5.17 5.17 0 0 0 .028-.037l.295-.397.978.672v-1.384l2.443.305-.265 1.548a.804.804 0 0 0-.012.058q-.008.046-.008.084v.102a.597.597 0 0 0 .012.122q.027.132.12.204.106.081.362.098a2.167 2.167 0 0 0 .137.004h.204q.982-.047 1.636-.1a20.953 20.953 0 0 0 .37-.033q.722-.071 1.069-.244a.915.915 0 0 0 .29-.223.865.865 0 0 0 .168-.307 2.867 2.867 0 0 0 .065-.25q.056-.26.096-.618a9.798 9.798 0 0 0 .012-.12h.977l.754 3.218-.642.061q-.641.061-1.7.122t-2.362.102l-1.12.896 7.371-.672 1.364 2.097q-.753.57-1.567 1.08-.815.509-1.69.957 2.199.305 4.866.55zm-5.355-2.484h-7.168l-.285.184a33.983 33.983 0 0 0 1.332.395 40.762 40.762 0 0 0 .857.226q1.17.295 2.474.56.774-.326 1.476-.662.703-.336 1.314-.703zm-1.932-5.093a1.17 1.17 0 0 0 .099-.486 1.411 1.411 0 0 0 0-.015 1.12 1.12 0 0 0-.336-.81 1.138 1.138 0 0 0-.34-.237 1.17 1.17 0 0 0-.485-.099 1.411 1.411 0 0 0-.015 0 1.12 1.12 0 0 0-.81.336 1.138 1.138 0 0 0-.236.34 1.17 1.17 0 0 0-.1.485 1.411 1.411 0 0 0 0 .015 1.12 1.12 0 0 0 .337.81 1.138 1.138 0 0 0 .339.237 1.17 1.17 0 0 0 .485.099 1.411 1.411 0 0 0 .016 0 1.12 1.12 0 0 0 .809-.336 1.138 1.138 0 0 0 .237-.34z" vector-effect="non-scaling-stroke"/></g></svg>