<svg xmlns="http://www.w3.org/2000/svg" viewBox="0 0 453.54 570.65" height="24px" width="24px"><path d="M28.41 570.65C12.723 570.633.011 557.917 0 542.23V63.93C.039 28.638 28.638.039 63.93 0H441.7c6.537.006 11.834 5.303 11.84 11.84v499.61c-.006 6.537-5.303 11.834-11.84 11.84h-12.42c-6.537-.006-11.834-5.303-11.84-11.84V39.18a7.1 7.1 0 0 0-7.11-7.11H64.83c-11.167.142-20.142 9.242-20.13 20.41.011 11.113 9.017 20.119 20.13 20.13h315.65a11.78 11.78 0 0 1 10.71 11.72v474.48c-.011 6.534-5.306 11.829-11.84 11.84z" fill="#9c27b0"/><path d="M226.29 151.56L94.75 367.09h98.36l-16.46 142.83 131.54-215.54h-98.33l16.43-142.82z" fill="#ffeb3b" fill-rule="evenodd"/></svg>
