<svg xmlns="http://www.w3.org/2000/svg" height="192px" viewBox="0 0 24 24" width="192px" fill="#9c27b0"><path d="m15 3-0.92 2.07-2.08 0.93 2.08 0.93 0.92 2.07 0.939-2.07 2.06-0.93-2.06-0.93-0.939-2.07zm0 1.5 0.471 1.04 1.03 0.465-1.03 0.465-0.471 1.04-0.461-1.04-1.04-0.465 1.04-0.465 0.461-1.04zm-11.5 1.5-0.5 2-2 0.5 2 0.5 0.5 2 0.5-2 2-0.5-2-0.5-0.5-2zm0 1.25 0.25 1 1 0.25-1 0.25-0.25 1-0.25-1-1-0.25 1-0.25 0.25-1zm17.5 0.75c-1.45 0-2.26 1.44-1.93 2.51l-3.55 3.56c-0.3-0.09-0.739-0.09-1.04 0l-2.55-2.55c0.34-1.07-0.47-2.52-1.93-2.52-1.45 0-2.27 1.44-1.93 2.52l-4.56 4.55c-1.07-0.33-2.51 0.48-2.51 1.93 0 1.1 0.9 2 2 2 1.45 0 2.26-1.44 1.93-2.51l4.55-4.56c0.3 0.09 0.739 0.09 1.04 0l2.55 2.55c-0.34 1.07 0.47 2.52 1.93 2.52 1.45 0 2.27-1.44 1.93-2.52l3.56-3.55c1.07 0.33 2.51-0.48 2.51-1.93 0-1.1-0.9-2-2-2zm0 1a1 1 0 0 1 1 1 1 1 0 0 1-1 1 1 1 0 0 1-1-1 1 1 0 0 1 1-1zm-11 1a1 1 0 0 1 1 1 1 1 0 0 1-1 1 1 1 0 0 1-1-1 1 1 0 0 1 1-1zm5 5a1 1 0 0 1 1 1 1 1 0 0 1-1 1 1 1 0 0 1-1-1 1 1 0 0 1 1-1zm-12 2a1 1 0 0 1 1 1 1 1 0 0 1-1 1 1 1 0 0 1-1-1 1 1 0 0 1 1-1z"/></svg>
